<?xml version="1.0" encoding="iso-8859-1"?>
<!-- Generator: Adobe Illustrator 21.0.0, SVG Export Plug-In . SVG Version: 6.00 Build 0)  -->
<svg xmlns="http://www.w3.org/2000/svg" xmlns:xlink="http://www.w3.org/1999/xlink" version="1.1" id="Capa_1" x="0px" y="0px" viewBox="0 0 512.002 512.002" style="enable-background:new 0 0 512.002 512.002;" xml:space="preserve" width="512" height="512">
<g>
	<g>
		<path d="M446.001,432.001V190c0-50.552-19.818-98.21-55.804-134.196C354.212,19.818,306.553,0,256.001,0    c-35.788,0-70.724,10.128-101.033,29.289c-4.668,2.951-6.06,9.128-3.109,13.796c2.952,4.669,9.13,6.06,13.796,3.109    C192.761,29.058,224.003,20,256.001,20c93.738,0,170,76.262,170,170v242.002h-340V190c0-32.003,9.058-63.244,26.194-90.345    c2.952-4.668,1.56-10.845-3.108-13.796c-4.667-2.951-10.844-1.56-13.796,3.108C76.129,119.27,66.001,154.207,66.001,190v242.002    c-22.056,0-40,17.944-40,40v30c0,5.523,4.477,10,10,10h440c5.523,0,10-4.477,10-10v-30    C486.001,449.945,468.057,432.001,446.001,432.001z M466.001,492.002h-420v-20c0-11.028,8.972-20,20-20h380    c11.028,0,20,8.972,20,20V492.002z"/>
		<path d="M276.001,75.999h-40c-5.523,0-10,4.477-10,10v30h-30c-5.523,0-10,4.477-10,10v40c0,5.523,4.477,10,10,10h30v70    c0,5.523,4.477,10,10,10h40c5.523,0,10-4.477,10-10v-70h30c5.523,0,10-4.477,10-10v-40c0-5.523-4.477-10-10-10h-30v-30    C286.001,80.476,281.524,75.999,276.001,75.999z M306.001,135.999v20h-30c-5.523,0-10,4.477-10,10v70h-20v-70    c0-5.523-4.477-10-10-10h-30v-20h30c5.523,0,10-4.477,10-10v-30h20v30c0,5.523,4.477,10,10,10H306.001z"/>
		<path d="M166.001,362.001v40c0,5.523,4.477,10,10,10h160c5.523,0,10-4.477,10-10v-40c0-5.523-4.477-10-10-10h-160    C170.478,352.001,166.001,356.478,166.001,362.001z M186.001,372.001h140v20h-140V372.001z"/>
		<path d="M246.005,312c-5.523,0-10,4.477-10,10s4.477,10,10,10h59.997c5.523,0,10-4.477,10-10s-4.477-10-10-10H246.005z"/>
		<path d="M206.001,312c-5.523,0-9.996,4.477-9.996,10s4.481,10,10.004,10s10-4.477,10-10s-4.477-10-10-10H206.001z"/>
		<path d="M128.724,72.719c2.401,0,4.811-0.859,6.727-2.602c4.086-3.715,4.388-10.04,0.673-14.126    c-3.715-4.087-10.04-4.388-14.126-0.673l-0.005,0.005c-4.086,3.715-4.385,10.037-0.67,14.124    C123.296,71.618,126.005,72.719,128.724,72.719z"/>
	</g>
</g>















</svg>
